<?xml version="1.0" encoding="utf-8"?>
<!-- Generator: Adobe Illustrator 24.1.2, SVG Export Plug-In . SVG Version: 6.00 Build 0)  -->
<svg version="1.1" xmlns="http://www.w3.org/2000/svg" xmlns:xlink="http://www.w3.org/1999/xlink" x="0px" y="0px"
	 viewBox="0 0 448 432.8" style="enable-background:new 0 0 448 432.8;" xml:space="preserve">
<style type="text/css">
	.st0{display:none;}
	.st1{display:inline;}
</style>
<g id="Layer_2" class="st0">
	<path class="st1" d="M32.3,261.7c0,9.8,0,19.5,0,29.3c0,5.7,0,11.4,0,17.1c0,1.5-0.4,2.1-2,2c-3.7-0.1-7.4-0.1-11.1,0
		c-1.4,0-1.8-0.4-1.8-1.8c0.1-16,0.1-32,0.1-48c0-2.4,0.2-4.8,0.8-7.2c0.3-1.2,1.2-2.5,2.2-3.2c5.2-3.3,10.8-4.3,16.8-2.6
		c3.1,0.9,5.4,2.6,6.7,5.6c5.1,11.7,10.3,23.4,15.5,35.1c1.2,2.8,2.5,5.5,3.9,8.7c0.8-0.9,1.4-1.4,1.8-2.1c2.5-5,5.1-10,7.4-15.1
		c3.9-8.4,7.8-16.8,11.6-25.3c1.8-4,4.9-6.1,8.9-7c4.8-1.1,9.4-0.8,13.9,1.6c2.5,1.4,3.9,3.5,4.1,6.4c0.2,4.1,0.6,8.1,0.7,12.2
		c0.2,13.5,0.2,27.1,0.3,40.6c0,1.7-0.5,2.3-2.2,2.2c-3.6-0.1-7.2-0.1-10.8,0c-1.5,0-2-0.4-2-2c-0.1-12.7-0.2-25.5-0.3-38.2
		c0-2.7-0.3-5.5-0.7-8.3c-1.6,3.6-3,7.2-4.7,10.8c-4.9,10.6-10,21.1-14.9,31.7c-1.5,3.3-3.8,5.2-7.3,5.4c-3.7,0.2-7.4,0.3-11.1,0.2
		c-1.7,0-3.1-0.9-4-2.6c-4.2-8.7-8.5-17.3-12.7-26c-2.9-6.1-5.6-12.2-8.4-18.4c-0.2-0.4-0.4-0.7-0.6-1.1
		C32.6,261.7,32.4,261.7,32.3,261.7z"/>
	<path class="st1" d="M422.9,267c-0.4-0.2-0.9-0.4-1.3-0.6c-7.3-4.6-14.8-9-21.9-13.9c-4.2-2.9-8.1-6.3-11.7-9.9
		c-3.4-3.4-2.8-5.4,1.8-6.7c5.4-1.5,11-2.3,16.5-3.4c0.9-0.2,1.8-0.3,3.3-0.5c-4.5-3-8.4-5.9-12.7-8.2c-4.9-2.7-10.1-4.9-15.2-7.2
		c-3.6-1.6-6.5-3.9-8.3-7.4c-3.4-6.4-6.5-12.9-9.7-19.4c-4.1-8.5-7.7-17.2-13.5-24.7c-9.8-12.8-21.9-22.8-37-28.7
		c-2.5-1-5.3-1.5-8.1-1.8c-4.1-0.5-7.8-1.7-11.3-3.9c-2.7-1.7-5.6-3.1-8.5-4.6c-0.9-0.5-2-0.8-3-1c-1.5-0.3-3.1-0.8-4.3,0.6
		c-1.3,1.5-0.2,2.9,0.5,4.2c2.7,4.6,5.8,9,8.1,13.7c3,6,5.3,12.2,8.2,18.2c1.6,3.4,3.7,6.6,5.8,9.6c1.6,2.3,2.5,4.7,1.6,7.4
		c-2.3,6.7-3.4,13.6-3,20.6c0.2,3.7,0.8,7.5,1.4,11.2c0.5,3.3,2.2,6.1,4.5,9c1.8-8.4,2.9-16.8,8.8-23.9
		c6.8,15.4,14.4,30.1,25.6,42.7c-5.3-2.8-9.4-7-13.6-11.2c-4.1-4.1-8.1-8.5-10.8-14.4c-0.4,1-0.6,1.5-0.8,2c-0.5,1.6-1,3.3-1.5,5
		c-0.9,2.6-1.8,5.1-5.2,5.5c-3.7,0.4-6.5-0.5-8.6-3.8c-3.7-5.7-5.3-12-6-18.7c-0.8-7.5,0.3-14.8,2.4-22c0.3-0.9,0.4-1.9,0.6-2.9
		c0.2-1.3-0.3-2.2-0.9-3.4c-2.5-4.4-5.2-8.8-7-13.5c-3.4-9.1-7.7-17.7-13.3-25.8c-1.5-2.2-2.6-4.9-3.2-7.6c-1.2-5,2.4-9.3,7.7-9.6
		c4.8-0.3,9.1,1.3,13.4,3.2c1.8,0.8,3.6,1.6,5.3,2.7c4.2,2.8,9,4,13.9,5c9,1.7,16.8,6.1,24.1,11.4c13.4,9.8,23.4,22.2,30.5,37.2
		c4.5,9.6,9.1,19.1,13.7,28.6c0.5,0.9,1.4,1.9,2.4,2.3c11,4.7,21,11,29.8,19.2c1.8,1.7,3.4,3.6,4.8,5.6c1.1,1.5,0.8,2.5-1.1,3
		c-3.7,1-7.6,1.8-11.3,2.7c-2.5,0.6-4.9,1.3-7.4,1.9c0,0.2,0,0.5-0.1,0.7c1.9,1.4,3.8,2.9,5.8,4.3c7.2,4.8,13.4,10.7,18.9,17.4
		c0.7,0.9,1.1,2,1.6,3C423.3,266.7,423.1,266.8,422.9,267z"/>
	<path class="st1" d="M324.3,307.5c4,3.7,7.8,7.1,11.6,10.6c-0.3,0.2-0.4,0.5-0.5,0.5c-4.5-0.1-9,0.1-13.5-0.5c-2.1-0.3-4.4-1.6-6-3
		c-4-3.8-8.8-5-14.1-4.9c-6.4,0-12.9-0.2-19.3-0.4c-2.2-0.1-4.4-0.4-6.6-0.9c-6.7-1.5-10.3-5-10.9-12.1c-0.7-8.9-0.7-17.9-1-26.8
		c-0.1-1.8,0.2-3.6,0.1-5.4c-0.2-8.1,5.8-13.5,11.1-15c4.2-1.2,8.7-1.8,13.1-2.1c9.6-0.5,19.3-0.6,28.8,1.2c3.6,0.7,6.8,2.1,9.6,4.5
		c2.4,2,3.8,4.6,3.8,7.7c0.1,12.2,0.1,24.5,0,36.7c0,2.6-1.1,4.9-3.1,6.7C326.6,305.3,325.5,306.4,324.3,307.5z M289.5,290.9
		c3.9,0,7.3,0,10.6,0c4.1,0,7.5,1.6,10.6,4.2c1.2,1,2.4,1.9,3.8,2.7c1.8,1.1,2.4,0.9,2.6-1.2c0.3-2.9,0.6-5.8,0.6-8.7
		c-0.2-8.7-0.7-17.4-0.9-26.1c-0.1-2.3-1.3-3.1-3.3-3.4c-9-1-18-1.1-27-0.3c-4.3,0.4-5.9,2.1-6.8,6.4c-0.2,0.8-0.3,1.6-0.3,2.4
		c-0.1,5.9-0.3,11.9-0.2,17.8c0.1,3.3,0.5,6.6,1,9.9c0.5,2.8,2.1,5.1,5.1,5.5c4.5,0.6,9,0.7,13.6,1c0.1-0.2,0.1-0.4,0.2-0.6
		C295.8,297.5,292.8,294.4,289.5,290.9z"/>
	<path class="st1" d="M171.2,300.7c0-0.7,0-1.5,0-2.2c0-10,0-20,0-30.1c0-1.9,0.5-2.5,2.4-2.4c3.6,0.2,7.3,0.1,10.9,0
		c1.3,0,1.7,0.5,1.7,1.7c-0.2,15.8-0.3,31.7-0.4,47.5c0,4.5-2.3,7.5-6.2,9.6c-5.3,2.8-11.1,4.2-17.1,4.5
		c-11.3,0.4-22.6,0.6-33.9,0.8c-1.2,0-2.5-0.3-3.7-0.3c-1.9,0-2.7-1.1-2.8-2.8c-0.1-1.9-0.2-3.8-0.3-5.7c-0.1-1.2,0.4-1.7,1.6-1.6
		c2.5,0,4.9,0,7.4-0.1c9.3-0.1,18.7-0.3,28-0.5c2.2,0,4.4-0.3,6.6-0.7c4.2-0.6,5.9-2,5.5-8c-1-0.1-2-0.3-3.1-0.3
		c-9-0.4-18-0.6-27-1.3c-3.9-0.3-7.8-1.3-11.5-2.5c-4.1-1.3-6.6-4.4-6.8-8.8c-0.3-10-0.5-20-0.8-30c0-1.2,0.5-1.5,1.6-1.5
		c3.9,0,7.8,0.1,11.7,0c1.5,0,1.7,0.6,1.7,1.9c0,6.8-0.1,13.6,0,20.4c0.1,3.1,0.4,6.3,0.7,9.4c0.1,1.5,1.1,2.4,2.7,2.5
		c9.9,0.2,19.9,0.5,29.8,0.7C170.4,301,170.7,300.9,171.2,300.7z"/>
	<path class="st1" d="M195.9,301c0.9,0,1.5,0,2.2,0c9.5-0.1,19-0.1,28.6-0.3c3.2-0.1,6.4-0.6,9.5-1.1c3.2-0.6,5.2-2.5,5.6-5.9
		c0.2-1.6,0.3-3.2,0.1-4.8c-0.2-2-1.4-3.5-3.3-4c-3.2-0.8-6.4-1.4-9.6-1.8c-6-0.6-11.9-1-17.9-1.5c-6.8-0.6-12-3.7-14.2-10.6
		c-1.2-3.9-0.8-7.8,0-11.7c0.7-3.4,2.6-5.8,5.6-7.6c5.5-3.4,11.6-4.2,17.8-4.3c11.7-0.1,23.5-0.1,35.2-0.1c1.3,0,1.7,0.5,1.7,1.7
		c-0.1,1.9,0,3.8,0,5.7c0,0.9-0.3,1.4-1.3,1.4c-1.3,0-2.6,0.1-3.9,0.2c-11.1,0.4-22.2,0.8-33.4,1.2c-0.8,0-1.6,0.2-2.4,0.3
		c-4.6,0.6-5.2,1.2-5.9,5.7c0,0.2-0.1,0.5-0.1,0.7c-0.3,8.1,1.5,8.3,7.3,8.8c6.9,0.7,13.9,1,20.9,1.7c3.1,0.3,6.2,1.1,9.2,2
		c4.7,1.5,7.5,4.9,7.8,9.8c0.2,4.5-0.1,9.1-0.4,13.7c-0.2,2.9-2.1,4.8-4.6,6.1c-3.9,2.1-8.2,2.8-12.5,3c-13.4,0.4-26.8,0.5-40.2,0.8
		c-1.3,0-1.7-0.4-1.7-1.7C196,306,195.9,303.6,195.9,301z"/>
	<path class="st1" d="M339.5,270.2c0-7,0-14,0-21c0-1.5,0.5-2,2-2c3.2,0.1,6.3,0.1,9.5,0c1.7-0.1,2.1,0.6,2.1,2.1
		c0,11.9,0,23.9,0.1,35.8c0,2.8,0.2,5.6,0.6,8.3c0.8,4.9,2.2,6.2,7.2,6.5c5.4,0.3,10.9,0.6,16.3,0.8c6.6,0.2,13.2,0.4,19.8,0.4
		c1.8,0,2.4,0.6,2.3,2.4c-0.1,1.5-0.1,3.1,0,4.6c0.1,1.6-0.5,2-2.1,2c-10.3-0.1-20.5-0.1-30.8-0.4c-4.2-0.1-8.5-0.7-12.7-1.1
		c-1-0.1-1.9-0.4-2.9-0.7c-8.3-2.5-10.6-5.4-11-14.1c-0.4-7.9-0.4-15.8-0.6-23.7C339.4,270.2,339.5,270.2,339.5,270.2z"/>
	<path class="st1" d="M414.6,306.3c-0.7,1.3-1.2,2.1-1.7,3c-1.2-1.6-1.2-6.3-0.1-7.6c0.8-0.9,1.5-0.7,2.2,0c0.8,0.9,1.5,1.9,2.5,3.1
		c0.1-0.7,0-1.4,0.3-1.7c0.7-0.8,1.4-1.8,2.3-2c0.5-0.1,1.8,1,2,1.7c0.3,1.6,0.4,3.3,0.2,4.9c-0.3,1.9-2,2-3.5,2
		c-1.6,0-3.3-0.2-3.9-2.1C414.8,307.3,414.8,307,414.6,306.3z"/>
	<path class="st1" d="M310.5,149.8c0,0.2,0.1,0.7-0.1,1c-0.5,1-1.2,1.9-1.8,2.9c-0.8-0.7-1.8-1.2-2.4-2.1c-1.4-2-2.5-4.2-3.7-6.4
		c-0.2-0.4-0.4-1.2-0.2-1.3c0.3-0.3,1-0.4,1.5-0.4C308.1,144.1,310.4,146.2,310.5,149.8z"/>
	<path class="st1" d="M403,301.5c2.3,0,4.6,0,6.5,0c-0.5,2.1-1,3.9-1.5,5.8c0,0.2,0,0.4-0.1,0.5c-0.5,0.7-1,1.4-1.5,2.1
		c-0.5-0.8-1.3-1.4-1.5-2.3c-0.4-2-0.2-4.2-2.1-5.7C402.9,301.8,402.9,301.6,403,301.5z"/>
</g>
<g id="Layer_3">
	<path d="M426.7,409.1c-1.1-0.6-2.3-1-3.4-1.7c-19.1-12.1-38.6-23.6-57.3-36.5c-11-7.6-21.2-16.5-30.6-25.9
		c-8.8-8.8-7.4-14.1,4.6-17.5c14.1-4,28.7-6,43.1-8.8c2.3-0.5,4.7-0.7,8.7-1.2c-11.8-7.8-22.1-15.4-33.2-21.5
		c-12.9-7-26.4-12.9-39.8-18.8c-9.4-4.1-17-10.3-21.7-19.3c-8.8-16.7-17.1-33.7-25.3-50.8c-10.6-22.2-20.2-45-35.2-64.6
		c-25.6-33.6-57.3-59.7-97-75.1c-6.7-2.6-14-3.9-21.1-4.8c-10.7-1.3-20.4-4.5-29.5-10.2c-7.1-4.4-14.7-8.1-22.2-11.9
		c-2.4-1.2-5.1-2.1-7.8-2.5c-3.9-0.7-8.2-2.1-11.4,1.7c-3.4,4-0.6,7.7,1.4,11.1c7.1,12,15.1,23.4,21.3,35.8
		c7.8,15.6,13.9,32,21.4,47.8c4.2,8.8,9.6,17.2,15.2,25.2c4.3,6.1,6.6,12.2,4.1,19.5c-6,17.5-8.9,35.5-7.8,53.9
		c0.6,9.8,2.1,19.6,3.6,29.3c1.3,8.7,5.9,16,11.8,23.6c4.6-22,7.6-44,23-62.5c17.8,40.4,37.7,78.9,67,111.9
		c-13.9-7.4-24.7-18.4-35.5-29.3c-10.8-10.8-21.2-22.1-28.2-37.6c-1.1,2.6-1.7,3.9-2.1,5.2c-1.4,4.3-2.6,8.7-4,13
		c-2.3,6.9-4.8,13.3-13.7,14.3c-9.7,1.2-17-1.4-22.4-9.8c-9.6-15-13.9-31.5-15.7-48.9c-2-19.6,0.8-38.7,6.2-57.5
		c0.7-2.5,1.1-5.1,1.5-7.6c0.5-3.3-0.7-5.8-2.5-8.9c-6.6-11.5-13.6-22.9-18.2-35.2c-9-23.9-20.2-46.5-34.8-67.5
		c-4-5.8-6.9-13-8.5-19.9c-3.1-13.2,6.4-24.3,20-25c12.6-0.7,23.9,3.5,35,8.4c4.7,2.1,9.5,4.2,13.8,7c11.1,7.2,23.5,10.5,36.3,13
		c23.6,4.5,44,15.9,63.1,29.8c35,25.6,61.3,58.2,79.8,97.3c11.8,25,23.8,49.9,35.9,74.8c1.2,2.5,3.7,5,6.2,6.1
		c28.8,12.3,55,28.8,78,50.1c4.7,4.4,8.9,9.4,12.7,14.6c3,4,2,6.6-2.9,8c-9.8,2.7-19.8,4.7-29.7,7.1c-6.5,1.6-12.9,3.4-19.3,5.1
		c0,0.6-0.1,1.2-0.1,1.8c5,3.7,9.9,7.7,15.1,11.2c18.8,12.6,35.1,28,49.5,45.5c1.9,2.3,2.8,5.2,4.2,7.9
		C427.9,408.4,427.3,408.7,426.7,409.1z"/>
	<path d="M132.5,102.3c0,0.5,0.2,1.8-0.3,2.7c-1.4,2.6-3.1,5-4.7,7.5c-2.1-1.8-4.7-3.2-6.2-5.4c-3.6-5.4-6.6-11-9.8-16.7
		c-0.6-1-1-3-0.5-3.5c0.9-0.8,2.6-1.1,3.8-1C126.2,87.4,132.4,93,132.5,102.3z"/>
</g>
</svg>
