<?xml version="1.0" encoding="utf-8"?>
<!-- Generator: Adobe Illustrator 24.1.2, SVG Export Plug-In . SVG Version: 6.00 Build 0)  -->
<svg version="1.1" id="Layer_1" focusable="false" xmlns="http://www.w3.org/2000/svg" xmlns:xlink="http://www.w3.org/1999/xlink"
	 x="0px" y="0px" viewBox="0 0 448 512" style="enable-background:new 0 0 448 512;" xml:space="preserve">
<path d="M224.7,53.5c47.6,0,95.2,0.1,142.7-0.1c15.4-0.1,29.6,3.5,42.4,12.1C421,73.1,429.4,83,435,95.2c5,10.8,6.7,22.2,6.7,34
	c-0.1,92.1,0.2,184.1-0.2,276.2c-0.1,26.4-12.2,46.9-34.8,61.1c-12,7.5-25.2,10.3-39.1,10.3c-95.6,0-191.2,0-286.8,0
	c-22.1,0-40.9-8-55.6-24.6C13.8,439.4,7.5,424.2,7.4,407c-0.2-94.3-0.2-188.7,0-283c0-17.7,6.4-33.3,18.3-46.4
	c14.6-16.2,32.9-24,54.7-24C128.5,53.6,176.6,53.5,224.7,53.5z M104.1,253.7C104.1,253.7,104.1,253.7,104.1,253.7c0,2.5,0,5.1,0,7.6
	c0,31.4,0,62.7,0,94.1c0,4.7,0.1,4.8,4.9,4.8c8.4,0,16.9-0.1,25.3,0c2.6,0,3.5-1,3.5-3.5c-0.1-16.3-0.1-32.6-0.1-48.9
	c0-7.3,0.1-14.7,0-22c0-2.1,0.6-3,2.8-2.7c1.6,0.2,3.3,0.2,4.9,0.2c15.7,0.6,31.1-0.8,45.9-6.7c18-7.2,30.9-19.6,37-38.3
	c4-12.1,4.7-24.5,2.8-37.1c-2.6-18.2-11.1-32.8-26.8-42.7c-12.7-8-26.8-11.5-41.6-11.8c-17.9-0.3-35.9,0.3-53.8,0.6
	c-4.9,0.1-4.9,0.2-4.9,5.2C104.1,186.3,104.1,220,104.1,253.7z M256.2,336.5c0,0-0.1,0-0.1,0c0,4.3,0.1,8.7,0,13
	c-0.1,3,1.3,4.7,3.9,5.8c20.4,8,41.2,9.9,62.2,3.1c15.5-5,26.1-15.4,29.6-31.8c4.5-21.1-1.6-38.4-20-50.4
	c-7.3-4.8-15.3-8.6-22.8-13.2c-5.2-3.1-10.4-6.3-15-10.2c-5.9-5-6-12.8-0.8-18.3c3.1-3.2,7.1-4.7,11.4-5.1
	c13.3-1.3,25.9,1.2,37.9,7.1c3.3,1.6,4.3,1.1,4.4-2.5c0.1-7.7,0.1-15.4,0.1-23.1c0-4.6-0.8-5.5-5.2-7c-8.3-2.7-16.8-3.7-25.4-4
	c-13-0.6-25.7,0.7-37.4,7.2c-20.1,11.2-26.6,33.8-19.9,54.1c3.3,10.2,10.6,17.4,19.3,23.1c6.7,4.4,14,7.9,21,11.9
	c5.9,3.4,11.8,6.7,16.3,12c5.9,7,4.1,17.1-4.1,21.1c-3.1,1.5-6.7,2.4-10.1,2.6c-15.2,1-29.2-2.8-42.2-10.6c-2.4-1.4-3.1-1.2-3.1,1.5
	C256.1,327.5,256.2,332,256.2,336.5z"/>
<path d="M137.7,214.9c0-11.3,0.1-22.6,0-34c0-2.5,0.6-3.6,3.3-3.5c8.8,0.3,17.8-0.1,26.5,0.7c8.9,0.9,16.6,4.9,22.4,12
	c4.3,5.3,6.3,11.5,7,18.2c0.9,8.7,0.2,17.2-3.7,25.2c-5.3,10.8-14.9,16.1-26.2,17.5c-8.9,1.2-18,0.8-27.1,1.1
	c-2.2,0.1-2.2-1.2-2.2-2.8C137.8,237.9,137.7,226.4,137.7,214.9z"/>
</svg>
