<?xml version="1.0" encoding="utf-8"?>
<!-- Generator: Adobe Illustrator 24.1.2, SVG Export Plug-In . SVG Version: 6.00 Build 0)  -->
<svg version="1.1" xmlns="http://www.w3.org/2000/svg" xmlns:xlink="http://www.w3.org/1999/xlink" x="0px" y="0px"
	 viewBox="0 0 448 512" style="enable-background:new 0 0 448 512;" xml:space="preserve">
<style type="text/css">
	.st0{display:none;}
	.st1{display:inline;}
	.st2{fill:#FFFFFF;}
</style>
<g id="Layer_1" focusable="false" class="st0">
	<path class="st1" d="M439.5,236.1L244,40.5c-11.3-11.3-29.5-11.3-40.8,0l-40.7,40.6l51.5,51.5c27.1-9.1,52.7,16.8,43.4,43.7
		l49.7,49.7c34.2-11.8,61.2,31,35.5,56.7c-26.5,26.5-70.2-2.9-56-37.3L240.2,199v121.9c25.3,12.5,22.3,41.9,9.1,55
		c-13.4,13.4-35.1,13.4-48.6,0c-17.6-17.6-11.1-46.9,11.3-56v-123c-20.8-8.5-24.6-30.7-18.6-45L142.6,101L8.4,235.1
		c-11.3,11.3-11.3,29.5,0,40.8l195.6,195.6c11.3,11.3,29.5,11.3,40.8,0l194.7-194.7C450.8,265.6,450.8,247.3,439.5,236.1
		L439.5,236.1z"/>
</g>
<g id="Layer_2" class="st0">
	<path class="st1" d="M226.2,57c44.3,0,88.5-0.1,132.8,0c40.6,0.1,70.3,28.8,70.5,69.3c0.4,86.1,0.4,172.2,0,258.4
		c-0.2,39.8-29.7,69-69.3,69.1c-89.5,0.2-179.1,0.2-268.6,0c-39.7-0.1-69.6-29.1-69.8-68.6c-0.5-86.6-0.5-173.2,0-259.8
		c0.2-39.5,30.3-68.2,70-68.3C136.7,56.9,181.5,57,226.2,57z M144.1,267.5c10.9,0,19.7,0.5,28.5-0.1c35.5-2.3,59.4-26.3,61.6-61.3
		c2.2-36.2-15.6-60.6-51.9-66.7c-18.2-3.1-37.2-1-55.8-2.1c-12.3-0.8-15.9,4-15.8,16.1c0.5,58,0.2,116,0.3,174
		c0,4.3,0.6,8.5,0.9,12.7c11.2,0,21.2,0,32.2,0C144.1,315.8,144.1,292.9,144.1,267.5z M337.1,222.4c3-30.3,2.5-30.9-27.5-33.4
		c-3.4-0.3-6.9-0.4-10.3-0.1c-25.1,2.2-42,14.6-46.4,33.9c-4.8,21.2,4.3,38.4,27.5,51.6c6.8,3.9,14.8,6.5,20.2,11.8
		c4.9,4.9,9.7,12.8,9.3,19c-0.2,3.5-11.1,9.2-17,9c-13.3-0.5-26.6-4.1-39.8-6.4c-4,29.6,0.5,35.1,31.1,36.2c4.4,0.2,8.9,0.2,13.3,0
		c23.2-1.4,40.6-14.1,45.5-33.2c5.5-21.3-2.4-39.1-23.6-52.2c-8.8-5.4-18.7-9.2-26.5-15.7c-4.4-3.6-8.3-11.6-7.3-16.7
		c0.7-3.8,9.4-8.8,14.5-8.7C312.1,217.7,324,220.6,337.1,222.4z"/>
	<path class="st1" d="M144.9,167.6c19.9-1,39.5-4.1,51.2,15.5c8.1,13.7,7.6,29-1.9,41.8c-12.3,16.7-30.8,13.7-49.3,12.6
		C144.9,214.2,144.9,191.8,144.9,167.6z"/>
</g>
<g id="Layer_4" class="st0">
</g>
<g id="Layer_3">
	<path class="st2" d="M301.3,399.4h-160c-28.7,0-52-23.3-52-52v-160c0-28.7,23.3-52,52-52h160c28.7,0,52,23.3,52,52v160
		C353.3,376.1,330,399.4,301.3,399.4z"/>
</g>
</svg>
